<svg width="199" height="32" viewBox="0 0 199 32" fill="none" xmlns="http://www.w3.org/2000/svg">
<path d="M27.952 19.96C28.1653 20.1307 28.272 20.3547 28.272 20.632C28.272 20.9093 28.176 21.144 27.984 21.336H23.44L25.264 27.416C25.3067 27.5653 25.328 27.7573 25.328 27.992C25.328 28.2267 25.1787 28.5147 24.88 28.856C24.5813 29.1973 24.272 29.368 23.952 29.368C23.3547 29.368 22.8853 29.2187 22.544 28.92L20.272 21.336H12.112L10.512 25.688C9.95733 27.16 9.15733 28.4293 8.112 29.496C7.06667 30.5627 5.712 31.096 4.048 31.096C2.78933 31.096 1.808 30.7653 1.104 30.104C0.378667 29.4427 0.0159999 28.4827 0.0159999 27.224C0.0159999 25.9653 0.325333 24.8347 0.944 23.832C1.54133 22.808 2.34133 22.008 3.344 21.432C5.34933 20.28 7.58933 19.704 10.064 19.704L14.736 6.52C14.9493 5.90133 15.1733 5.44267 15.408 5.144C14.7467 2.92533 14.416 1.70933 14.416 1.496C14.416 1.26133 14.5653 1.00533 14.864 0.727999C15.184 0.429332 15.504 0.279999 15.824 0.279999C16.4427 0.279999 16.9227 0.429332 17.264 0.727999L22.928 19.704L27.12 19.672C27.4827 19.672 27.76 19.768 27.952 19.96ZM4.048 29.752C5.648 29.752 7.03467 28.1413 8.208 24.92L9.456 21.368C7.10933 21.368 5.24267 21.9227 3.856 23.032C2.49067 24.1413 1.808 25.6027 1.808 27.416C1.808 28.1627 2.01067 28.7387 2.416 29.144C2.84267 29.5493 3.38667 29.752 4.048 29.752ZM16.624 7.608L12.72 19.704H19.76L16.624 7.608ZM37.9718 25.144V17.464C37.9718 14.9253 37.3318 13.656 36.0518 13.656C34.9851 13.656 34.1638 14.2427 33.5878 15.416C33.0331 16.5893 32.7558 18.6587 32.7558 21.624V26.648C32.5424 26.9467 32.1691 27.096 31.6358 27.096C31.1024 27.096 30.6758 26.936 30.3558 26.616C30.0358 26.2747 29.8758 25.784 29.8758 25.144V12.984C30.0891 12.6853 30.4624 12.536 30.9958 12.536C31.5291 12.536 31.9558 12.7067 32.2758 13.048C32.5958 13.368 32.7558 13.848 32.7558 14.488C33.4811 13.1867 34.7078 12.536 36.4358 12.536C38.4624 12.536 39.8278 13.4 40.5318 15.128C41.2571 13.4 42.6118 12.536 44.5958 12.536C45.9824 12.536 47.0811 12.9733 47.8918 13.848C48.7238 14.7227 49.1398 15.9813 49.1398 17.624V22.168C49.1398 23.384 49.3318 24.3013 49.7158 24.92C50.0998 25.5387 50.6651 25.848 51.4118 25.848C52.1798 25.848 52.8518 25.3787 53.4278 24.44C54.0038 23.48 54.2918 21.8693 54.2918 19.608C54.3131 19.48 54.4731 19.416 54.7718 19.416C55.1558 19.416 55.3478 19.9813 55.3478 21.112C55.3478 22.9253 54.9531 24.376 54.1638 25.464C53.3958 26.552 52.2651 27.096 50.7718 27.096C49.2784 27.096 48.1264 26.584 47.3158 25.56C46.5264 24.536 46.1318 23.0853 46.1318 21.208V17.464C46.1318 14.9253 45.4918 13.656 44.2118 13.656C42.0358 13.656 40.9478 16.3333 40.9478 21.688V26.648C40.7344 26.9467 40.3504 27.096 39.7958 27.096C39.2624 27.096 38.8251 26.936 38.4838 26.616C38.1424 26.2747 37.9718 25.784 37.9718 25.144ZM54.5365 9.4C54.1738 9.03733 53.9925 8.58933 53.9925 8.056C53.9925 7.52267 54.1738 7.07467 54.5365 6.712C54.8992 6.328 55.3472 6.136 55.8805 6.136C56.4138 6.136 56.8618 6.328 57.2245 6.712C57.6085 7.07467 57.8005 7.52267 57.8005 8.056C57.8005 8.58933 57.6085 9.03733 57.2245 9.4C56.8618 9.76267 56.4138 9.944 55.8805 9.944C55.3472 9.944 54.8992 9.76267 54.5365 9.4ZM54.4085 14.488C54.4085 13.848 54.5685 13.368 54.8885 13.048C55.2085 12.7067 55.6138 12.536 56.1045 12.536C56.5952 12.536 56.9898 12.6853 57.2885 12.984V22.168C57.2885 23.384 57.5232 24.3013 57.9925 24.92C58.4618 25.5387 59.1018 25.848 59.9125 25.848C60.7232 25.848 61.4805 25.3573 62.1845 24.376C62.8885 23.3947 63.2405 21.8053 63.2405 19.608C63.2832 19.48 63.4432 19.416 63.7205 19.416C64.1045 19.416 64.2965 19.9813 64.2965 21.112C64.2965 22.7547 63.8485 24.1627 62.9525 25.336C62.0565 26.5093 60.9152 27.096 59.5285 27.096C57.8005 27.096 56.5098 26.584 55.6565 25.56C54.8245 24.536 54.4085 23.0853 54.4085 21.208V14.488ZM80.6245 19.416C81.0085 19.416 81.2005 19.9813 81.2005 21.112C81.2005 22.9253 80.8058 24.376 80.0165 25.464C79.2485 26.552 78.1178 27.096 76.6245 27.096C75.1312 27.096 73.9792 26.584 73.1685 25.56C72.3792 24.536 71.9845 23.0853 71.9845 21.208V17.464C71.9845 14.9253 71.3445 13.656 70.0645 13.656C68.9338 13.656 68.0058 14.232 67.2805 15.384C66.5552 16.536 66.1925 18.4667 66.1925 21.176V26.648C65.9792 26.9467 65.6058 27.096 65.0725 27.096C64.5392 27.096 64.1125 26.936 63.7925 26.616C63.4725 26.2747 63.3125 25.784 63.3125 25.144V12.984C63.5258 12.6853 63.9312 12.536 64.5285 12.536C65.6378 12.536 66.1925 13.336 66.1925 14.936C67.0885 13.336 68.5072 12.536 70.4485 12.536C71.8352 12.536 72.9338 12.9733 73.7445 13.848C74.5765 14.7227 74.9925 15.9813 74.9925 17.624V22.168C74.9925 23.384 75.1845 24.3013 75.5685 24.92C75.9525 25.5387 76.5178 25.848 77.2645 25.848C78.0325 25.848 78.7045 25.3787 79.2805 24.44C79.8565 23.48 80.1445 21.8693 80.1445 19.608C80.1658 19.48 80.3258 19.416 80.6245 19.416ZM89.7228 13.464C90.0001 12.8453 90.4374 12.536 91.0348 12.536C91.6534 12.536 92.1121 12.6853 92.4108 12.984V22.168C92.4108 23.384 92.6028 24.3013 92.9868 24.92C93.3708 25.5387 93.8934 25.848 94.5548 25.848C96.5601 25.848 97.5628 23.768 97.5628 19.608C97.5841 19.48 97.7441 19.416 98.0428 19.416C98.4268 19.416 98.6188 19.9813 98.6188 21.112C98.6188 22.9253 98.2241 24.376 97.4348 25.464C96.6668 26.552 95.5788 27.096 94.1708 27.096C92.0161 27.096 90.5868 26.1467 89.8828 24.248C89.4774 25.1227 88.9228 25.816 88.2188 26.328C87.5148 26.84 86.7148 27.096 85.8188 27.096C82.0854 27.096 80.2188 24.6533 80.2188 19.768C80.2188 17.2933 80.7948 15.4693 81.9468 14.296C83.1201 13.1227 84.6668 12.536 86.5868 12.536C88.0588 12.536 89.1041 12.8453 89.7228 13.464ZM83.7068 23.704C84.0054 24.6427 84.3468 25.24 84.7308 25.496C85.1148 25.7307 85.6268 25.848 86.2668 25.848C86.9068 25.848 87.6001 25.4533 88.3468 24.664C89.1148 23.8533 89.4988 22.808 89.4988 21.528V17.144C89.4988 16.1413 89.2321 15.3307 88.6988 14.712C88.1868 14.0933 87.6001 13.784 86.9388 13.784C86.2988 13.784 85.7868 13.848 85.4028 13.976C85.0188 14.104 84.6561 14.3707 84.3148 14.776C83.6108 15.544 83.2588 17.208 83.2588 19.768C83.2588 21.4533 83.4081 22.7653 83.7068 23.704Z" fill="#0E1437"/>
<path d="M123.577 19.96C123.79 20.1307 123.897 20.3547 123.897 20.632C123.897 20.9093 123.801 21.144 123.609 21.336H119.065L120.889 27.416C120.932 27.5653 120.953 27.7573 120.953 27.992C120.953 28.2267 120.804 28.5147 120.505 28.856C120.206 29.1973 119.897 29.368 119.577 29.368C118.98 29.368 118.51 29.2187 118.169 28.92L115.897 21.336H107.737L106.137 25.688C105.582 27.16 104.782 28.4293 103.737 29.496C102.692 30.5627 101.337 31.096 99.673 31.096C98.4143 31.096 97.433 30.7653 96.729 30.104C96.0037 29.4427 95.641 28.4827 95.641 27.224C95.641 25.9653 95.9503 24.8347 96.569 23.832C97.1663 22.808 97.9663 22.008 98.969 21.432C100.974 20.28 103.214 19.704 105.689 19.704L110.361 6.52C110.574 5.90133 110.798 5.44267 111.033 5.144C110.372 2.92533 110.041 1.70933 110.041 1.496C110.041 1.26133 110.19 1.00533 110.489 0.727999C110.809 0.429332 111.129 0.279999 111.449 0.279999C112.068 0.279999 112.548 0.429332 112.889 0.727999L118.553 19.704L122.745 19.672C123.108 19.672 123.385 19.768 123.577 19.96ZM99.673 29.752C101.273 29.752 102.66 28.1413 103.833 24.92L105.081 21.368C102.734 21.368 100.868 21.9227 99.481 23.032C98.1157 24.1413 97.433 25.6027 97.433 27.416C97.433 28.1627 97.6357 28.7387 98.041 29.144C98.4677 29.5493 99.0117 29.752 99.673 29.752ZM112.249 7.608L108.345 19.704H115.385L112.249 7.608ZM142.813 19.416C143.197 19.416 143.389 19.9813 143.389 21.112C143.389 22.7547 142.962 24.1627 142.109 25.336C141.277 26.5093 140.189 27.096 138.845 27.096C137.501 27.096 136.381 26.6267 135.485 25.688C134.61 24.728 134.173 23.5013 134.173 22.008V17.464C134.173 14.9253 133.533 13.656 132.253 13.656C131.122 13.656 130.194 14.232 129.469 15.384C128.743 16.536 128.381 18.4667 128.381 21.176V26.648C128.167 26.9467 127.794 27.096 127.261 27.096C126.727 27.096 126.301 26.936 125.981 26.616C125.661 26.2747 125.501 25.784 125.501 25.144V9.112C125.501 6.33867 125.767 4.33333 126.301 3.096C126.834 1.83733 127.858 1.208 129.373 1.208C130.183 1.208 130.813 1.54933 131.261 2.232C131.709 2.91467 131.933 3.88533 131.933 5.144C131.933 7.42667 130.749 9.752 128.381 12.12V14.936C129.277 13.336 130.695 12.536 132.637 12.536C134.023 12.536 135.122 12.9733 135.933 13.848C136.765 14.7227 137.181 15.9813 137.181 17.624V22.168C137.181 23.384 137.373 24.3013 137.757 24.92C138.141 25.5387 138.706 25.848 139.453 25.848C140.199 25.848 140.861 25.3467 141.437 24.344C142.034 23.32 142.333 21.7413 142.333 19.608C142.354 19.48 142.514 19.416 142.813 19.416ZM128.381 10.584C129.831 8.70667 130.557 6.88267 130.557 5.112C130.557 3.34133 130.173 2.456 129.405 2.456C128.978 2.456 128.701 2.94667 128.573 3.928C128.445 4.90933 128.381 7.128 128.381 10.584ZM150.503 25.144V17.464C150.503 14.9253 149.863 13.656 148.583 13.656C147.516 13.656 146.695 14.2427 146.119 15.416C145.564 16.5893 145.287 18.6587 145.287 21.624V26.648C145.074 26.9467 144.7 27.096 144.167 27.096C143.634 27.096 143.207 26.936 142.887 26.616C142.567 26.2747 142.407 25.784 142.407 25.144V12.984C142.62 12.6853 142.994 12.536 143.527 12.536C144.06 12.536 144.487 12.7067 144.807 13.048C145.127 13.368 145.287 13.848 145.287 14.488C146.012 13.1867 147.239 12.536 148.967 12.536C150.994 12.536 152.359 13.4 153.063 15.128C153.788 13.4 155.143 12.536 157.127 12.536C158.514 12.536 159.612 12.9733 160.423 13.848C161.255 14.7227 161.671 15.9813 161.671 17.624V22.168C161.671 23.384 161.863 24.3013 162.247 24.92C162.631 25.5387 163.196 25.848 163.943 25.848C164.711 25.848 165.383 25.3787 165.959 24.44C166.535 23.48 166.823 21.8693 166.823 19.608C166.844 19.48 167.004 19.416 167.303 19.416C167.687 19.416 167.879 19.9813 167.879 21.112C167.879 22.9253 167.484 24.376 166.695 25.464C165.927 26.552 164.796 27.096 163.303 27.096C161.81 27.096 160.658 26.584 159.847 25.56C159.058 24.536 158.663 23.0853 158.663 21.208V17.464C158.663 14.9253 158.023 13.656 156.743 13.656C154.567 13.656 153.479 16.3333 153.479 21.688V26.648C153.266 26.9467 152.882 27.096 152.327 27.096C151.794 27.096 151.356 26.936 151.015 26.616C150.674 26.2747 150.503 25.784 150.503 25.144ZM180.284 19.8C180.732 19.8 180.956 20.1413 180.956 20.824C180.956 22.4027 180.401 23.8427 179.292 25.144C178.204 26.4453 176.54 27.096 174.3 27.096C172.06 27.096 170.257 26.4987 168.892 25.304C167.548 24.088 166.876 22.3173 166.876 19.992C166.876 17.6453 167.473 15.8213 168.668 14.52C169.862 13.1973 171.388 12.536 173.244 12.536C174.588 12.536 175.569 12.8987 176.188 13.624C176.806 14.328 177.116 15.1707 177.116 16.152C177.116 17.752 176.444 19.0853 175.1 20.152C173.777 21.1973 172.081 21.72 170.012 21.72C170.204 23.0853 170.694 24.12 171.484 24.824C172.294 25.5067 173.35 25.848 174.652 25.848C175.974 25.848 177.158 25.3573 178.204 24.376C179.27 23.3733 179.804 21.912 179.804 19.992C179.825 19.864 179.985 19.8 180.284 19.8ZM169.916 20.248V20.536C171.238 20.3653 172.38 19.9493 173.34 19.288C174.321 18.6267 174.812 17.6453 174.812 16.344C174.812 15.512 174.63 14.8827 174.268 14.456C173.905 14.008 173.393 13.784 172.732 13.784C171.729 13.784 171.004 14.2747 170.556 15.256C170.129 16.2373 169.916 17.9013 169.916 20.248ZM179.875 19.576C179.875 17.1227 180.451 15.3413 181.603 14.232C182.776 13.1013 184.323 12.536 186.243 12.536C187.48 12.536 188.462 12.7813 189.187 13.272V8.92C189.187 6.232 189.454 4.28 189.987 3.064C190.542 1.82667 191.566 1.208 193.059 1.208C193.87 1.208 194.499 1.54933 194.947 2.232C195.395 2.91467 195.619 3.88533 195.619 5.144C195.619 7.42667 194.435 9.752 192.067 12.12V22.168C192.067 23.384 192.27 24.3013 192.675 24.92C193.102 25.5387 193.656 25.848 194.339 25.848C195.022 25.848 195.672 25.432 196.291 24.6C196.931 23.7467 197.251 22.4027 197.251 20.568C197.251 20.1627 197.24 19.8427 197.219 19.608C197.24 19.48 197.4 19.416 197.699 19.416C198.083 19.416 198.275 19.9813 198.275 21.112C198.275 22.8827 197.87 24.3227 197.059 25.432C196.27 26.5413 195.246 27.096 193.987 27.096C191.704 27.096 190.211 26.0933 189.507 24.088C189.102 24.984 188.547 25.7093 187.843 26.264C187.139 26.7973 186.35 27.064 185.475 27.064C181.742 27.064 179.875 24.568 179.875 19.576ZM185.795 25.816C186.584 25.816 187.331 25.3893 188.035 24.536C188.76 23.6613 189.123 22.552 189.123 21.208V17.112C189.123 16.0667 188.867 15.256 188.355 14.68C187.864 14.0827 187.278 13.784 186.595 13.784C185.934 13.784 185.411 13.8373 185.027 13.944C184.664 14.0507 184.302 14.2853 183.939 14.648C183.256 15.352 182.915 16.9947 182.915 19.576C182.915 22.1787 183.214 23.8853 183.811 24.696C184.344 25.4427 185.006 25.816 185.795 25.816ZM193.091 2.456C192.643 2.456 192.355 2.95733 192.227 3.96C192.12 4.94133 192.067 7.14933 192.067 10.584C193.518 8.70667 194.243 6.88267 194.243 5.112C194.243 3.34133 193.859 2.456 193.091 2.456Z" fill="#0E27AE"/>
</svg>
